<svg width="500" height="500">
 <path style="fill:#1D1D1B;" d="M251.988,100.871c-1.485-0.472-2.966-0.945-4.44-1.449c-21.082-7.195-40.693-17.279-58.272-29.979
			c-13.288-9.602-25.738-20.927-37.02-33.667c-4.264-4.816-8.416-9.901-12.379-15.152c0.321-0.113,0.631-0.236,0.94-0.36
			c1.448-0.588,2.588-1.158,3.575-1.809c2.141-1.402,2.402-3.079,2.366-3.951c-0.036-0.869-0.429-2.52-2.672-3.74
			c-1.138-0.619-2.377-1.123-3.675-1.506C134.701,7.6,128.978,5.97,123.258,4.34l-4.265-1.212c-0.37-0.108-0.719-0.157-1.079-0.157
			h-0.096l-0.174,0.01c-1.427,0.103-2.428,1.193-2.848,2.102L114.58,5.55c-6.451,14.058-14.008,27.518-22.47,40.008
			c-16.107,23.783-36.182,45.096-59.654,63.355c-9.253,7.197-19.132,14.008-29.374,20.244c-1.509,0.919-2.504,2.366-2.961,4.292
			c-0.488,2.094,0.517,4,2.494,4.745c0.984,0.366,1.834,0.54,2.682,0.54c0.964,0,1.898-0.23,2.775-0.688
			c8.793-4.582,16.751-9.094,24.323-13.781c2.646-1.639,5.155-3.402,7.73-5.1v0.252v17.559v87.812v0.389
			c-0.005,0.577-0.005,1.153,0.056,1.722c0.073,0.718,0.175,1.712,0.472,2.693c0.79,2.654,2.719,4.184,5.284,4.184
			c0.538,0,1.107-0.075,1.687-0.21c1.714-0.41,3.16-1.244,4.35-2c2.031-1.303,3.811-2.836,5.535-4.321
			c1.157-0.992,1.711-2.215,1.707-3.747c-0.023-7.276-0.023-14.548-0.019-21.817v-3.749c1.903-0.094,5.086-0.177,9.288-0.177h18.142
			c4.2,0,7.375,0.083,9.284,0.177v1.382c0,2.861-0.005,5.728,0.005,8.593c0.005,1.249,0.103,2.898,0.809,4.558
			c0.939,2.194,2.719,3.401,5.002,3.401c0.266,0,0.543-0.011,0.83-0.054c1.767-0.209,3.207-0.95,4.504-1.717
			c2.509-1.49,4.611-3.306,6.72-5.191c0.887-0.797,1.323-1.873,1.226-3.028v-0.025l0.005-0.494v-67.166
			c1.215-0.33,2.396-0.74,3.549-1.413c2.104-1.233,2.766-2.755,2.95-3.81c0.184-1.056,0.076-2.707-1.478-4.552
			c-0.701-0.827-1.491-1.564-2.359-2.196c-3.497-2.528-7.011-5.032-10.52-7.536l-3.087-2.2l-0.44-0.301
			c-0.514-0.344-1.123-0.528-1.745-0.528c-0.979,0-1.888,0.436-2.502,1.2l-0.339,0.43l-1.241,1.656
			c-1.241,1.648-2.483,3.299-3.714,4.966c-6.202-0.01-12.401-0.016-18.604-0.016l-16.074,0.005
			c-4.155-2.166-8.095-4.263-12.029-6.366l-2.278-1.214l-0.388-0.197c10.719-7.329,20.851-15.16,30.292-23.485
			c-0.131,0.881-0.143,1.745-0.147,2.344c-0.011,3.816,0.845,4.677,1.21,5.042l0.791,0.79l1.183,0.037h0.462h14.948h14.95
			l65.305,0.005c1.896,0,3.617-0.74,5.124-2.21c1.392-1.355,1.811-3.299,1.098-5.074c-0.316-0.79-0.74-1.704-1.459-2.503
			c-1.02-1.144-1.922-2.001-2.836-2.693c-3.983-3.021-7.984-6.016-11.984-9.011l-3.779-2.832l-0.42-0.307
			c-0.54-0.38-1.176-0.581-1.844-0.581c-0.834,0-1.662,0.334-2.267,0.913l-0.356,0.349l-2.841,2.835
			c-3.14,3.134-6.272,6.267-9.391,9.422c-15.058-0.021-30.071-0.021-45.09-0.021h-9.488h-9.294c3.743-3.42,7.431-6.877,10.94-10.441
			c7.063-7.182,13.793-14.798,20-22.641c7.359-9.293,14.202-19.189,20.378-29.452c12.854,21.018,28.749,39.875,47.291,56.088
			c15.878,13.884,34.066,26.173,54.073,36.53c0.143,0.077,0.299,0.147,0.451,0.21l0.499,0.21h0.546c1.459,0,2.168-1,2.734-1.801
			c0.342-0.478,0.841-1.194,1.49-1.908c0.525-0.575,1.197-1.124,2.247-1.827c1.113-0.748,2.279-1.441,3.472-2.071
			c3.685-1.95,7.601-3.396,11.275-4.672l0.53-0.197l1.711-0.661l0.21-2.011c0.006-1.167-0.719-2.215-1.854-2.667
			c-0.221-0.086-0.399-0.155-0.577-0.214L251.988,100.871L251.988,100.871z M59.181,145.019c0.011-5.17,4.215-9.397,9.375-9.407
			c3.785-0.017,8.058-0.026,12.166-0.026l5.854,0.005c5.124,0.011,9.289,4.222,9.289,9.382v31.67c0,5.124-4.16,9.286-9.279,9.286
			H68.617c-5.16,0-9.376-4.173-9.397-9.297C59.176,167.293,59.166,154.373,59.181,145.019z"/>
    </svg>