<svg width="500" height="700">

<path fill="20,20,200" d="M 328.712, 264.539 c 12.928 -21.632, 21.504 -48.992, 23.168 -76.064 c 1.056 -17.376 -2.816 -35.616 -11.2 -52.768
	c -13.152 -26.944 -35.744 -42.08 -57.568 -56.704 c -16.288 -10.912 -31.68 -21.216 -42.56 -35.936 l -1.952 -2.624
	c -6.432 -8.64 -13.696 -18.432 -14.848 -26.656 c -1.152 -8.32 -8.704 -14.24 -16.96 -13.76 c -8.384, 0.576 -14.88, 7.52 -14.88, 15.936 v 285.12
	c -13.408 -8.128 -29.92 -13.12 -48 -13.12 c -44.096, 0 -80, 28.704 -80, 64 s 35.904, 64, 80, 64 s 80 -28.704, 80 -64 V 165.467
	c 24.032, 9.184, 63.36, 32.576, 74.176, 87.2 c -2.016, 2.976 -3.936, 6.176 -6.176, 8.736 c -5.856, 6.624 -5.216, 16.736, 1.44, 22.56
	c 6.592, 5.888, 16.704, 5.184, 22.56 -1.44 c 4.288 -4.864, 8.096 -10.56, 11.744 -16.512 C 328.04, 265.563, 328.393, 265.083, 328.712, 264.539 z"/>
</svg>